mtllib materials.mtl
v -0.02398556 -0.2800438 -0.0151684
v -0.2857884 -0.3299999 0.1649999
v -0.33 -0.3299999 -5.960464E-08
v -0.1650001 -0.3299999 0.2857884
v -1.043081E-07 -0.33 0.33
v 0.1649999 -0.33 0.2857884
v 0.2857883 -0.33 0.1650001
v 0.33 -0.33 2.980232E-08
v 0.2857883 -0.33 -0.165
v 0.1649999 -0.33 -0.2857884
v 0 -0.33 -0.33
v -0.165 -0.3299999 -0.2857884
v -0.2857884 -0.3299999 -0.165
vn -0.1589125 0.986374 0.04258065
vn -0.1116132 0.9874639 0.1116133
vn -0.03906316 0.9885446 0.1457864
vn 0.03766619 0.9893538 0.1405715
vn 0.1009197 0.9897628 0.1009196
vn 0.1380899 0.9897283 0.03700124
vn 0.14123 0.9892533 -0.03784243
vn 0.1074319 0.988391 -0.1074317
vn 0.04113701 0.9872882 -0.1535247
vn -0.04280514 0.9862287 -0.1597518
vn -0.1196114 0.9855893 -0.1196117
vn -0.1630701 0.9856465 -0.04369456
vn -1.748456E-07 -1 -3.284806E-09
vt -0.04092886 0.03068791
vt -0.04920869 -0.0003992899
vt -0.03217641 0.0009036865
vt -0.02841716 0.02651508
vt -0.05157274 0.002155775
vt -0.03595354 -0.004760675
vt -0.01912783 0.01699062
vt -0.05221903 0.005717003
vt -0.04179978 -0.007819461
vt -0.01502171 0.004641747
vt -0.05051764 0.009923807
vt -0.04799541 -0.006971017
vt -0.01691017 -0.007667372
vt -0.0461079 0.0137021
vt -0.05237623 -0.002188292
vt -0.02465031 -0.01699947
vt -0.0396946 0.01546565
vt -0.05328574 0.005117803
vt -0.0367979 -0.02058652
vt -0.03337875 0.01401636
vt -0.05039436 0.01251107
vt -0.05017833 -0.01684279
vt -0.02986704 0.009650892
vt -0.04501649 0.01754334
vt -0.06066609 -0.006684463
vt -0.03064442 0.004297253
vt -0.03934072 0.019
vt -0.06510051 0.00666898
vt -0.03488078 0.0001171237
vt -0.0349175 0.01719914
vt -0.06239326 0.01937359
vt -0.04041314 -0.001880427
vt -0.03212378 0.01305555
vt -0.05345684 0.02812985
vt -0.04543873 -0.001860412
vt -0.03104245 0.007334325
vt 0.03003054 -0.02566359
vt 0.04705628 -0.02704955
vt 0.06249399 -0.01973695
vt 0.07220713 -0.005685213
vt 0.07359309 0.01134053
vt 0.0662805 0.02677823
vt 0.05222875 0.03649138
vt 0.03520301 0.03787733
vt 0.01976531 0.03056474
vt 0.01005217 0.016513
vt 0.008666206 -0.0005127349
vt 0.0159788 -0.01595045
o group142910479
g mesh142910479
usemtl mat20
f 3/3/1 2/2/1 1/1/1
f 2/6/2 4/5/2 1/4/2
f 4/9/3 5/8/3 1/7/3
f 5/12/4 6/11/4 1/10/4
f 6/15/5 7/14/5 1/13/5
f 7/18/6 8/17/6 1/16/6
f 8/21/7 9/20/7 1/19/7
f 9/24/8 10/23/8 1/22/8
f 10/27/9 11/26/9 1/25/9
f 11/30/10 12/29/10 1/28/10
f 12/33/11 13/32/11 1/31/11
f 13/36/12 3/35/12 1/34/12
f 13/48/13 12/47/13 11/46/13 10/45/13 9/44/13 8/43/13 7/42/13 6/41/13 5/40/13 4/39/13 2/38/13 3/37/13
